<svg width="48" height="48" viewBox="0 0 48 48" fill="none" xmlns="http://www.w3.org/2000/svg">
<path d="M11.0499 46.1539C9.75663 46.1539 9.849 48 11.0499 48C12.3431 48 12.2507 46.1539 11.0499 46.1539Z" fill="#444B6F"/>
<path d="M17.5169 4.61542C17.5169 3.41542 15.6694 3.41542 15.6694 4.61542C15.6694 5.81542 17.5169 5.81542 17.5169 4.61542Z" fill="#444B6F"/>
<path d="M21.2113 4.61542C21.2113 3.41542 19.3638 3.41542 19.3638 4.61542C19.3638 5.81542 21.2113 5.81542 21.2113 4.61542Z" fill="#444B6F"/>
<path d="M24.9066 4.61542C24.9066 3.41542 23.0591 3.41542 23.0591 4.61542C23.0591 5.81542 24.9066 5.81542 24.9066 4.61542Z" fill="#444B6F"/>
<path fill-rule="evenodd" clip-rule="evenodd" d="M18.4407 12H24.9069C26.4772 12 27.6781 13.2 27.6781 14.7692V18.4615C27.6781 20.0308 26.4772 21.2308 24.9069 21.2308H18.4407C16.8703 21.2308 15.6694 20.0308 15.6694 18.4615V14.7692C15.6694 13.2 16.8703 12 18.4407 12ZM24.9065 19.3846C25.4608 19.3846 25.8303 19.0154 25.8303 18.4615V14.7692C25.8303 14.2154 25.4608 13.8461 24.9065 13.8461H18.4403C17.8861 13.8461 17.5166 14.2154 17.5166 14.7692V18.4615C17.5166 19.0154 17.8861 19.3846 18.4403 19.3846H24.9065Z" fill="#444B6F"/>
<path d="M38.7623 12H31.3723C30.1715 12 30.1715 13.8462 31.3723 13.8462H38.7623C39.9631 13.8462 39.9631 12 38.7623 12Z" fill="#444B6F"/>
<path d="M38.7623 16.6154H31.3723C30.1715 16.6154 30.1715 18.4615 31.3723 18.4615H38.7623C39.9631 18.4615 39.9631 16.6154 38.7623 16.6154Z" fill="#444B6F"/>
<path fill-rule="evenodd" clip-rule="evenodd" d="M48 25.8462V27.6923C48 28.8923 46.1525 28.8923 46.1525 27.6923V25.8462C46.1525 24.2769 44.9517 23.0769 43.3813 23.0769H32.2964C30.726 23.0769 29.5251 24.2769 29.5251 25.8462C29.5251 33.3588 29.5252 33.3588 29.6008 33.6298L29.6008 33.63C29.606 33.6486 29.6116 33.6686 29.6175 33.6923L33.7744 29.5385C34.5134 28.8 35.6219 28.8 36.3608 29.5385L39.6863 32.8615L41.1643 31.3846C41.8109 30.6462 43.0118 30.6462 43.7508 31.3846L46.0601 33.6923L46.0712 33.6595C46.0805 33.6319 46.0888 33.6074 46.0962 33.5827C46.1525 33.3923 46.1525 33.1853 46.1525 31.3846C46.1525 30.1846 48 30.1846 48 31.3846V33.2308C48 35.4462 46.4296 37.2923 44.305 37.7538V41.3538C44.305 45.4154 41.1643 48 37.8388 48H14.7453C13.5444 48 13.5444 46.1539 14.7453 46.1539H33.3125C32.2964 45.1385 31.5574 43.5692 31.465 42.3692C31.4372 42.1472 31.4262 41.9669 31.4167 41.8133C31.3948 41.4559 31.3817 41.2428 31.1879 40.9846C31.1595 40.9563 31.1372 40.9299 31.1164 40.9053C31.1011 40.8871 31.0866 40.87 31.0711 40.8538C30.8014 40.5711 30.2341 40.5723 19.7775 40.5948H19.7773C15.7482 40.6035 10.2509 40.6154 2.73662 40.6154C0.61201 40.6154 2.18237 46.1539 6.43159 46.1539H7.35533C8.5562 46.1539 8.5562 48 7.35533 48H6.43159C-0.219358 48 -2.15922 38.7692 2.73662 38.7692H11.0503V2.76923C11.0503 1.2 12.2512 0 13.8215 0H41.5338C43.1042 0 44.305 1.2 44.305 2.76923V21.3231C46.4296 21.7846 48 23.6308 48 25.8462ZM41.5335 1.84615H13.8212C13.3593 1.84615 12.8975 2.30768 12.8975 2.76922V7.38461H42.4572V2.76922C42.4572 2.30768 41.9953 1.84615 41.5335 1.84615ZM35.0678 30.8308L38.3933 34.1538C39.1323 34.8923 40.2408 34.8923 40.9798 34.1538L42.4578 32.6769L45.1366 35.3538L45.1265 35.3622C44.9661 35.4959 44.8362 35.604 44.6936 35.6913C44.0873 36.0624 43.2504 36.0566 38.8568 36.0261C37.2206 36.0148 35.0911 36 32.2966 36C31.65 36 31.0034 35.7231 30.5415 35.3538L35.0678 30.8308ZM27.6779 25.8461C27.6779 23.2615 29.7101 21.2307 32.2966 21.2307H42.3654V9.23074H12.8057V38.7692C18.6674 38.7692 22.5918 38.749 25.2525 38.7354C30.6424 38.7077 30.8468 38.7066 31.4653 38.9538C32.2966 39.2307 33.2204 40.2461 33.2204 41.4461C33.128 43.8461 34.9755 46.0615 37.8391 46.1538C40.2408 46.1538 42.4578 44.2154 42.4578 41.3538V37.8461H32.2966C29.7101 37.8461 27.6779 35.8154 27.6779 33.2307V25.8461Z" fill="#444B6F"/>
<path fill-rule="evenodd" clip-rule="evenodd" d="M41.0716 29.5384C39.7783 29.5384 38.7622 28.523 38.7622 27.2307C38.7622 25.9384 39.7783 24.923 41.0716 24.923C42.3648 24.923 43.3809 25.9384 43.3809 27.2307C43.3809 28.523 42.3648 29.5384 41.0716 29.5384ZM41.0719 27.6923C40.4253 27.6923 40.4253 26.7692 41.0719 26.7692C41.7185 26.7692 41.7185 27.6923 41.0719 27.6923Z" fill="#444B6F"/>
<path d="M24.9062 24H16.5925C15.3917 24 15.3917 25.8462 16.5925 25.8462H24.9062C26.1071 25.8462 26.1071 24 24.9062 24Z" fill="#444B6F"/>
<path d="M24.9062 28.6154H16.5925C15.3917 28.6154 15.3917 30.4615 16.5925 30.4615H24.9062C26.1071 30.4615 26.1071 28.6154 24.9062 28.6154Z" fill="#444B6F"/>
<path d="M24.9062 33.2307H16.5925C15.3917 33.2307 15.3917 35.0769 16.5925 35.0769H24.9062C26.1071 35.0769 26.1071 33.2307 24.9062 33.2307Z" fill="#444B6F"/>
<path fill-rule="evenodd" clip-rule="evenodd" d="M0.88916 31.7538C0.88916 32.2154 3.75276 36.3692 3.84514 36.4615C4.02988 36.7384 4.58413 37.0154 4.95363 36.8307C5.28349 36.7483 5.39249 36.5188 5.4778 36.3392C5.48805 36.3176 5.49796 36.2967 5.50787 36.2769C5.80488 35.9207 6.71305 34.4958 7.34811 33.4994L7.34818 33.4993L7.34821 33.4993C7.70069 32.9462 7.96901 32.5252 8.00198 32.4923C8.04078 32.4302 8.07501 32.3943 8.10518 32.3626C8.11581 32.3514 8.12593 32.3408 8.13557 32.3297C8.3287 32.1081 8.32766 31.7173 8.30581 23.4964C8.295 19.4289 8.2791 13.4445 8.2791 4.61536C8.2791 3.04613 7.07824 1.84613 5.50787 1.84613H3.66039C2.09003 1.84613 0.88916 3.04613 0.88916 4.61536V18.4615C0.88916 19.6615 2.73665 19.6615 2.73665 18.4615V9.23075H6.43161V29.9077C5.13838 29.3538 4.02988 29.3538 2.73665 29.9077V22.1538C2.73665 20.9538 0.88916 20.9538 0.88916 22.1538V31.7538ZM2.73633 7.38452V4.61529C2.73633 4.06145 3.10583 3.69221 3.66007 3.69221H5.50756C6.0618 3.69221 6.4313 4.06145 6.4313 4.61529V7.38452H2.73633ZM5.01896 33.6241C5.18411 33.3803 5.33769 33.1286 6.1544 31.8461C5.23065 31.2 3.93741 31.2 3.01367 31.8461C3.80995 33.0397 3.97586 33.2884 4.13673 33.5403C4.23712 33.6975 4.33556 33.856 4.58403 34.2461C4.8223 33.906 4.9226 33.7664 5.01896 33.6241Z" fill="#444B6F"/>
</svg>
