<svg width="42" height="43" viewBox="0 0 42 43" fill="none" xmlns="http://www.w3.org/2000/svg">
<path d="M4.03857 4.0566C4.03857 5.11132 5.65396 5.11132 5.65396 4.0566C5.65396 3.00189 4.03857 3.00189 4.03857 4.0566Z" fill="#444B6F"/>
<path d="M8.0769 4.0566C8.0769 5.11132 9.69229 5.11132 9.69229 4.0566C9.69229 3.00189 8.0769 3.00189 8.0769 4.0566Z" fill="#444B6F"/>
<path d="M12.1155 4.0566C12.1155 5.11132 13.7309 5.11132 13.7309 4.0566C13.7309 3.00189 12.1155 3.00189 12.1155 4.0566Z" fill="#444B6F"/>
<path d="M25.0385 1.62264H25.8462C26.8962 1.62264 26.8962 0 25.8462 0H25.0385C23.9885 0 23.9885 1.62264 25.0385 1.62264Z" fill="#444B6F"/>
<path fill-rule="evenodd" clip-rule="evenodd" d="M9.77304 14.6038C11.55 14.6038 13.1653 13.7113 14.1346 12.2509C14.2153 12.0887 14.5384 12.0887 14.5384 12.4132C14.5384 14.0653 14.5417 15.3711 14.5443 16.4031C14.5528 19.7762 14.5539 20.2243 14.409 20.278C14.3868 20.2862 14.3612 20.2852 14.3316 20.284C14.3204 20.2835 14.3085 20.283 14.2961 20.283C14.2153 20.283 14.1346 20.283 14.0538 20.2019C13.1653 18.7415 11.55 17.8491 9.69227 17.8491C9.69227 14.8951 9.69227 14.5967 9.73505 14.5905C9.73986 14.5898 9.7452 14.5927 9.75115 14.5961C9.75769 14.5997 9.76496 14.6038 9.77304 14.6038ZM7.26919 14.6038C6.38073 14.6038 5.65381 15.334 5.65381 16.2264C5.65381 17.1189 6.38073 17.8491 7.26919 17.8491H8.07689V14.6038H7.26919Z" fill="#444B6F"/>
<path fill-rule="evenodd" clip-rule="evenodd" d="M37.9615 35.6981C37.9615 36.7528 36.3462 36.7528 36.3462 35.6981V25.1509H34.7308V40.566H36.3462V38.9434C36.3462 37.8887 37.9615 37.8887 37.9615 38.9434V40.566H41.1923C42.2423 40.566 42.2423 42.1887 41.1923 42.1887H8.88461C7.83461 42.1887 7.83461 40.566 8.88461 40.566H11.3077V36.5094C11.3077 35.617 12.0346 34.8868 12.9231 34.8868H14.5385C15.4269 34.8868 16.1538 35.617 16.1538 36.5094V40.566H18.5769V34.0755H9.20769C7.72452 35.5653 6.51414 36.7834 5.5248 37.7791L5.52443 37.7795L5.5158 37.7881L5.51482 37.7891L5.51457 37.7894L5.51447 37.7895L5.51427 37.7897C1.3273 42.0035 1.10861 42.2236 0.916882 42.2021C0.90635 42.201 0.8959 42.1991 0.884877 42.1971L0.884772 42.197L0.884729 42.197C0.862964 42.1931 0.838959 42.1887 0.807692 42.1887C0.0807692 42.1887 -0.242308 41.2962 0.242308 40.8094L6.94615 34.0755H3.23077C1.45385 34.0755 0 32.6151 0 30.8302V24.3396C0 23.2849 1.61538 23.2849 1.61538 24.3396V30.8302C1.61538 31.7226 2.34231 32.4528 3.23077 32.4528H8.56154L20.4346 20.5264C20.7577 20.2019 21.2423 20.2019 21.5654 20.5264L25.8462 24.8264L35.2154 15.4151H33.1154C32.0654 15.4151 32.0654 13.7925 33.1154 13.7925C37.0654 13.7925 37.2477 13.7925 37.4099 13.8495L37.4338 13.8582L37.4548 13.8659L37.4769 13.8736C37.9953 14.1339 37.9938 14.2898 37.973 16.5612V16.5618C37.9679 17.1217 37.9615 17.8102 37.9615 18.6604C37.9615 19.7151 36.3462 19.7151 36.3462 18.6604V16.5509L26.4115 26.5302C26.0885 26.8547 25.6038 26.8547 25.2808 26.5302L21 22.2302C18.0223 25.1648 15.5136 27.7068 13.3923 29.8563L13.3921 29.8565L13.3921 29.8566C12.4638 30.7972 11.6098 31.6626 10.8231 32.4528H18.5769V28.3962C18.5769 27.5038 19.3038 26.7736 20.1923 26.7736H21.8077C22.6962 26.7736 23.4231 27.5038 23.4231 28.3962V32.4528H25.8462V31.6415C25.8462 30.7491 26.5731 30.0189 27.4615 30.0189H29.0769C29.9654 30.0189 30.6923 30.7491 30.6923 31.6415V32.4528H33.1154V25.1509C33.1154 24.2585 33.8423 23.5283 34.7308 23.5283H36.3462C37.2346 23.5283 37.9615 24.2585 37.9615 25.1509V32.4528H38.7692C39.6577 32.4528 40.3846 31.7226 40.3846 30.8302V8.11321H1.61538V21.0943C1.61538 22.1491 0 22.1491 0 21.0943V3.24528C0 1.46038 1.45385 0 3.23077 0H21.8077C22.8577 0 22.8577 1.62264 21.8077 1.62264H3.23077C2.34231 1.62264 1.61538 2.35283 1.61538 3.24528V6.49057H40.3846V3.24528C40.3846 2.35283 39.6577 1.62264 38.7692 1.62264H29.0769C28.0269 1.62264 28.0269 0 29.0769 0H38.7692C40.5462 0 42 1.46038 42 3.24528V30.8302C42 32.6151 40.5462 34.0755 38.7692 34.0755H37.9615V35.6981ZM25.8462 40.566V34.0755H23.4231V40.566H25.8462ZM12.9231 40.566V36.5094H14.5385V40.566H12.9231ZM20.1923 28.3962V40.566H21.8077V28.3962H20.1923ZM27.4615 40.566V31.6415H29.0769V40.566H27.4615ZM30.6923 34.0755V40.566H33.1154V34.0755H30.6923Z" fill="#444B6F"/>
</svg>
