<svg width="42" height="42" viewBox="0 0 42 42" fill="none" xmlns="http://www.w3.org/2000/svg">
<path d="M34 22.661V23.339C34 24.2203 36 24.2203 36 23.339V22.661C36 21.7797 34 21.7797 34 22.661Z" fill="#444B6F"/>
<path fill-rule="evenodd" clip-rule="evenodd" d="M41.7852 12.5434L40.903 14.0809C40.5019 14.7283 39.6197 15.052 38.8177 14.7283L38.4969 14.5665C38.4969 20.1682 38.5152 24.1327 38.5282 26.9591V26.9599V26.9602C38.5572 33.2288 38.5603 33.8981 38.2805 34.4139C38.2471 34.4756 38.2096 34.535 38.1676 34.6016L38.1676 34.6016C38.145 34.6375 38.1211 34.6754 38.0959 34.7168H39.2989C40.6623 34.7168 41.705 35.7688 41.705 37.1445V37.9538C41.705 40.2197 39.9405 42 37.6949 42H4.01009C1.76444 42 0 40.2197 0 37.9538V37.1445C0 35.7688 1.04262 34.7168 2.40606 34.7168H3.60908C3.17205 33.8348 3.17243 33.6885 3.19405 25.3828C3.2002 23.0191 3.20807 19.9945 3.20807 16.104C1.44363 16.104 0 14.6474 0 12.8671V8.01156C0 6.23121 1.44363 4.77457 3.20807 4.77457C4.2507 4.77457 4.2507 6.39306 3.20807 6.39306C2.32585 6.39306 1.60404 7.12139 1.60404 8.01156V12.8671C1.60404 13.7572 2.32585 14.4855 3.20807 14.4855H11.2283C11.5648 14.4855 11.7319 14.6565 12.3932 15.3334L12.3932 15.3334C12.5199 15.463 12.6647 15.6112 12.8323 15.7803V8.01156C12.8323 7.12139 12.1105 6.39306 11.2283 6.39306H6.41615C5.37353 6.39306 5.37353 4.77457 6.41615 4.77457H11.2283C12.9927 4.77457 14.4363 6.23121 14.4363 8.01156V9.63006C17.6949 9.63006 20.1539 9.61615 22.0135 9.60563H22.0137H22.0137H22.0138C24.6392 9.59078 26.0695 9.58268 26.8676 9.63006C27.028 9.38728 27.1884 9.06358 27.1082 8.65896C27.028 7.93064 26.7072 7.68786 26.1458 7.28324C25.424 6.79769 25.2636 5.90751 25.6646 5.17919L26.5468 3.64162C26.9478 2.91329 27.9102 2.67052 28.6321 2.99422L29.0331 3.15607C30.0757 3.64162 31.1985 2.91329 31.2787 1.86127V1.45665C31.3589 0.647399 32.0807 0 32.8828 0H34.6472C35.4492 0 36.171 0.647399 36.2512 1.45665V1.86127C36.3314 2.91329 37.4543 3.64162 38.4969 3.15607L38.8979 2.99422C39.6197 2.67052 40.5019 2.91329 40.903 3.64162L41.7852 5.17919C42.1862 5.90751 41.9456 6.79769 41.304 7.28324L40.9832 7.52601C40.1009 8.17341 40.1009 9.54913 40.9832 10.1965C41.0634 10.2775 41.3842 10.5202 41.304 10.4393C42.0258 10.9249 42.1862 11.815 41.7852 12.5434ZM27.9102 4.45087L27.028 5.98844C29.2737 7.52601 29.2737 10.1156 26.8676 11.815L27.7498 13.2717C27.7592 13.2811 27.7663 13.2894 27.7723 13.2964C27.7826 13.3083 27.7895 13.3163 27.798 13.319C27.8152 13.3245 27.8393 13.3088 27.9115 13.2612L27.9116 13.2612C27.9625 13.2277 28.0374 13.1785 28.1509 13.1098C30.0757 12.3006 32.4818 13.2717 32.7224 16.185H34.4066C34.4868 15.9692 34.5314 15.7624 34.5759 15.5555C34.665 15.1419 34.7541 14.7283 35.1284 14.2428C35.6898 13.3526 36.6523 12.8671 37.4543 12.8671C38.3365 12.7861 38.7375 12.948 39.4593 13.2717L40.3415 11.7341C37.9355 10.0347 38.2563 7.44509 40.3415 5.98844L39.4593 4.45087C38.4167 4.85549 37.3741 5.17919 36.171 4.45087C35.0482 3.72254 34.6472 2.75145 34.567 1.53757H32.8026C32.6422 4.04624 30.7173 5.66474 27.9102 4.45087ZM25.424 11.2486C25.2636 11.896 25.5042 12.3815 25.7448 12.8671H14.4363V11.2486H25.424ZM23.9434 35.3169C24.2976 34.9497 24.5224 34.7168 24.8626 34.7168C35.0316 34.7168 35.5018 34.7754 35.9103 34.6432C35.9819 34.6201 36.0515 34.5911 36.171 34.5549C36.5721 34.2312 36.8127 33.9075 36.8929 33.422V14.7283C36.3123 15.1189 36.257 15.5684 36.199 16.0412C36.1608 16.3521 36.1213 16.6732 35.9304 16.9942C35.5995 17.5137 35.4371 17.4547 35.3583 17.5116C35.2653 17.5787 35.2888 17.8074 35.2888 19.341C35.2888 20.3931 33.6848 20.3931 33.6848 19.341V17.7225H32.8026C32.0005 17.7225 31.2787 17.0751 31.1985 16.2659V15.8613C31.1183 14.8902 30.0757 14.0809 28.9529 14.5665L28.5519 14.7283C27.9905 14.9711 27.3488 14.8902 26.8676 14.4855H14.4363V17.7225C14.4363 18.2081 14.1155 18.5318 13.6343 18.5318C13.2998 18.5318 13.2443 18.4755 11.8846 17.0941C11.6145 16.8197 11.2929 16.493 10.9075 16.104H8.02019V31.4798H33.6848V26.6243C33.6848 25.5723 35.2888 25.5723 35.2888 26.6243V32.289C35.2888 32.7746 34.968 33.0983 34.4868 33.0983H7.21817C6.73696 33.0983 6.41615 32.7746 6.41615 32.289V16.104H4.81211C4.81211 32.8969 4.7501 33.1096 4.78966 33.3013C4.79509 33.3277 4.80243 33.3536 4.81211 33.422C4.83665 33.4715 4.8593 33.521 4.88209 33.5708C5.00831 33.8466 5.13858 34.1313 5.61413 34.474C5.74901 34.5518 5.83297 34.6062 5.92384 34.644C6.2112 34.7635 6.56768 34.7168 8.82221 34.7168C9.86483 34.7168 9.86483 36.3353 8.82221 36.3353H2.40606C1.92484 36.3353 1.60404 36.659 1.60404 37.1445V37.9538C1.60404 39.3295 2.64666 40.3815 4.01009 40.3815H37.6949C39.0583 40.3815 40.1009 39.3295 40.1009 37.9538V37.1445C40.1009 36.659 39.7801 36.3353 39.2989 36.3353H25.1834C25.1104 36.4089 25.043 36.4788 24.9797 36.5444C24.6255 36.9115 24.4008 37.1445 24.0606 37.1445C18.4949 37.1445 17.6182 37.2797 17.0985 36.9112C16.9217 36.7859 16.7862 36.6023 16.5216 36.3353H12.0303C10.9877 36.3353 10.9877 34.7168 12.0303 34.7168C16.0881 34.7168 16.847 34.5935 17.3254 34.9033C17.5183 35.0283 17.6656 35.2237 17.9652 35.526H23.7398C23.8127 35.4524 23.8801 35.3825 23.9434 35.3169Z" fill="#444B6F"/>
<path fill-rule="evenodd" clip-rule="evenodd" d="M37 9C37 10.65 35.65 12 34 12C32.35 12 31 10.65 31 9C31 7.35 32.35 6 34 6C35.65 6 37 7.35 37 9ZM35.5 9C35.5 8.175 34.825 7.5 34 7.5C33.175 7.5 32.5 8.175 32.5 9C32.5 9.825 33.175 10.5 34 10.5C34.825 10.5 35.5 9.825 35.5 9Z" fill="#444B6F"/>
<path fill-rule="evenodd" clip-rule="evenodd" d="M24.9201 26.6714C25.0001 26.7526 25.0801 26.7526 25.1601 26.7526C25.2045 26.7526 25.2413 26.7589 25.2716 26.7477C25.4594 26.6785 25.4001 25.9388 25.4001 18.8778C25.4001 18.553 25.0801 18.553 25.0001 18.7154C24.0401 20.1767 22.4401 21.0697 20.6801 21.0697C20.6648 21.0697 20.6525 21.055 20.6425 21.0564C20.6001 21.0626 20.6001 21.3607 20.6001 24.3171C22.4401 24.3171 24.0401 25.2101 24.9201 26.6714ZM16.6001 22.6934C16.6001 21.8004 17.3201 21.0697 18.2001 21.0697H19.0001V24.3171H18.2001C17.5601 24.3171 16.6001 23.83 16.6001 22.6934Z" fill="#444B6F"/>
<path d="M3 11C3 12.3333 5 12.3333 5 11C5 9.66667 3 9.66667 3 11Z" fill="#444B6F"/>
<path d="M8 11C8 9.66667 6 9.66667 6 11C6 12.3333 8 12.3333 8 11Z" fill="#444B6F"/>
<path d="M12 11C12 9.66667 10 9.66667 10 11C10 12.3333 12 12.3333 12 11Z" fill="#444B6F"/>
</svg>
