<svg width="42" height="42" viewBox="0 0 42 42" fill="none" xmlns="http://www.w3.org/2000/svg">
<path fill-rule="evenodd" clip-rule="evenodd" d="M31.5702 30.598L28.4202 27.4454C29.8902 25.764 30.6602 23.7323 30.8002 21.7006H33.0402C33.8802 24.9233 38.5702 24.2227 38.5702 21C38.5702 17.7773 33.8802 17.1468 33.0402 20.2994H30.8002C30.6602 18.1977 29.8202 16.166 28.4902 14.5546L31.6402 11.402C33.6702 13.0133 36.7502 13.0133 38.8502 11.1218L39.0602 10.9116C42.9802 6.98832 39.4802 0.402836 34.0902 1.45371C33.2502 1.59383 33.4602 2.995 34.3702 2.85488C36.6802 2.43453 38.8502 4.04587 39.2702 6.28774C39.7602 9.23019 37.1702 11.7523 34.1602 11.1218C30.8702 10.4212 29.8202 6.21768 32.2702 3.97581C32.9702 3.34529 31.9902 2.36447 31.2902 2.995C29.1902 5.02669 28.9802 8.24937 30.7302 10.4912L27.5802 13.6439C26.0402 12.3128 24.1502 11.4721 21.8402 11.3319V9.09007C25.0602 8.24937 24.3602 3.55546 21.1402 3.55546C17.9202 3.55546 17.2902 8.24937 20.4402 9.09007V11.3319C18.2702 11.4721 16.3102 12.3828 14.7702 13.7139L11.6202 10.5613C14.2802 6.77815 11.6902 1.38365 7.0002 1.38365C2.0302 1.38365 -0.489799 7.47873 3.0802 10.9817C4.8302 12.8032 8.0502 13.2235 10.4302 11.402L10.4303 11.4021C12.1102 13.0834 13.0902 14.0642 13.5802 14.6247C12.2502 16.166 11.3402 18.1276 11.2002 20.2994H8.9602C8.6102 18.7581 7.0702 17.9875 5.7402 18.2677C4.8302 18.4779 5.1802 19.809 6.0202 19.6689C6.7902 19.5288 7.4902 20.0192 7.6302 20.6497C7.9102 21.7006 6.9302 22.6814 5.8802 22.4012C5.3902 22.261 4.9702 21.7706 4.9002 21.2802C4.87611 21.1115 4.88518 20.9759 4.89318 20.8564C4.90842 20.6286 4.91976 20.4591 4.6902 20.2294C4.2702 19.809 3.6402 20.0192 3.5002 20.5796C2.8002 24.0826 8.0502 25.3436 8.9602 21.8407H11.2002C11.3402 24.1526 12.2502 26.0442 13.5802 27.5855L10.4302 30.7381C8.1902 28.9867 5.0402 29.2669 3.0802 31.1585C-0.629799 34.8716 2.2402 40.6163 7.0002 40.6163C11.6202 40.6163 14.2802 35.2919 11.4102 31.5788C11.7515 31.2799 12.2228 30.7989 12.9192 30.088L12.9195 30.0878C13.3657 29.6324 13.9042 29.0827 14.5602 28.4262C16.1002 29.7573 18.0602 30.6681 20.3002 30.8082V33.05C17.0802 33.8907 17.7802 38.5846 21.0002 38.5846C24.2202 38.5846 24.8502 33.8907 21.7002 33.05C21.7002 30.7801 21.7002 30.7801 21.7512 30.8028C21.7569 30.8054 21.7632 30.8082 21.7702 30.8082C22.6802 30.7381 22.6102 29.3369 21.6302 29.407C19.4602 29.6172 17.0802 28.9166 15.1902 27.2352C15.1202 27.025 14.9802 26.8849 14.7702 26.8148C14.0002 26.0442 13.4402 25.0634 13.0902 24.0125C10.0802 15.1852 20.7202 9.02002 26.8102 14.975L27.0202 15.1852C30.1002 18.4779 30.3102 24.0826 26.3902 27.4454C25.6902 28.0058 26.5302 29.1268 27.3702 28.4262L30.5202 31.5788C28.9802 33.5404 28.7702 36.4128 30.8702 38.8649C34.3702 42.5079 40.5302 40.0559 40.5302 35.0117C40.6002 30.3878 35.2802 27.7256 31.5702 30.598ZM2.80005 6.98832C2.80005 3.20517 7.49005 1.31359 10.08 4.11593C10.64 4.60634 11.2 5.79733 11.2 6.98832C11.2 9.30025 9.31005 11.1918 7.00005 11.1918C4.69005 11.1918 2.80005 9.30025 2.80005 6.98832ZM4.13005 31.9992C4.41005 31.7189 2.80005 32.9099 2.80005 35.0117C2.80005 37.3236 4.69005 39.2152 7.00005 39.2152C9.31005 39.2152 11.2 37.3236 11.2 35.0117C11.2 31.2986 6.79005 29.407 4.13005 31.9992ZM22.4001 35.7123C22.4001 36.4829 21.7701 37.1134 21.0001 37.1134C20.2301 37.1134 19.6001 36.4829 19.6001 35.7123C19.6001 34.9416 20.2301 34.3111 21.0001 34.3111C21.7701 34.3111 22.4001 34.9416 22.4001 35.7123ZM21.0001 4.88657C20.2301 4.88657 19.6001 5.5171 19.6001 6.28774C19.6001 7.05838 20.2301 7.68891 21.0001 7.68891C21.7701 7.68891 22.4001 7.05838 22.4001 6.28774C22.4001 5.5171 21.7701 4.88657 21.0001 4.88657ZM35.7001 19.5988C36.47 19.5988 37.1 20.2294 37.1 21C37.1 21.7706 36.47 22.4012 35.7001 22.4012C34.93 22.4012 34.3 21.7706 34.3 21C34.3 20.2294 34.93 19.5988 35.7001 19.5988ZM30.8 35.0117C30.8 37.3236 32.69 39.2152 35 39.2152C38.64 39.2152 40.74 34.8716 37.87 31.9992C35.21 29.407 30.8 31.2986 30.8 35.0117Z" fill="#444B6F"/>
<path fill-rule="evenodd" clip-rule="evenodd" d="M24.0801 23.7323C24.1501 23.8023 24.2201 23.8023 24.2901 23.8023C24.3292 23.8023 24.3614 23.8078 24.388 23.7979C24.5519 23.7372 24.5001 23.0946 24.5001 17.0067C24.5001 16.7264 24.2201 16.7264 24.1501 16.8666C23.3101 18.1276 21.9101 18.8982 20.3701 18.8982C20.3567 18.8982 20.3459 18.8855 20.3371 18.8868C20.3001 18.8922 20.3001 19.15 20.3001 21.7006C21.9101 21.7006 23.3101 22.4712 24.0801 23.7323ZM16.8 20.2994C16.8 19.5288 17.43 18.8982 18.2 18.8982H18.9V21.7006H18.2C17.43 21.7006 16.8 21.0701 16.8 20.2994Z" fill="#444B6F"/>
<path d="M23.7998 29.6172C24.1498 30.598 25.6198 29.8974 25.0598 29.0567C24.7098 28.3561 23.5198 28.8465 23.7998 29.6172Z" fill="#444B6F"/>
<path d="M13.23 2.995C14.14 2.6447 13.51 1.38365 12.67 1.73395C12.32 1.87406 12.18 2.29441 12.32 2.6447C12.6 3.20517 13.37 2.995 13.23 2.995Z" fill="#444B6F"/>
<path d="M21.7 0.683069C21.7 -0.22769 20.3 -0.22769 20.3 0.683069C20.3 1.59383 21.7 1.59383 21.7 0.683069Z" fill="#444B6F"/>
<path d="M26.2501 2.08424C26.8101 2.29441 27.2301 1.59383 27.0901 1.59383C27.3701 0.683068 25.9701 0.332776 25.7601 1.24354C25.6901 1.24354 25.6901 1.94412 26.2501 2.08424Z" fill="#444B6F"/>
<path d="M15.7501 2.08424C16.6601 1.804 16.2401 0.472894 15.4001 0.753127C15.0501 0.823186 14.8401 1.24354 14.9101 1.59383C15.0501 2.29441 15.8901 2.08424 15.7501 2.08424Z" fill="#444B6F"/>
<path d="M23.66 1.59383C24.22 1.73395 24.5 0.963304 24.43 0.963304C24.57 0.0525448 23.17 -0.15763 23.03 0.753129C22.96 1.17348 23.24 1.52377 23.66 1.59383Z" fill="#444B6F"/>
<path d="M28.7699 2.995C29.3299 3.20517 29.7499 2.6447 29.6799 2.6447C30.0299 1.804 28.7699 1.24354 28.4199 2.08424C28.2799 2.08424 28.2099 2.78482 28.7699 2.995Z" fill="#444B6F"/>
<path d="M18.34 1.59383C19.18 1.45371 19.18 0.192659 18.13 0.192659C17.78 0.262718 17.5 0.61301 17.5 0.963302C17.64 1.66389 18.41 1.59383 18.34 1.59383Z" fill="#444B6F"/>
<path d="M14.91 40.4062C14.84 40.4062 14.84 41.1068 15.4 41.2469C15.96 41.457 16.31 40.7565 16.24 40.7565C16.45 39.8457 15.12 39.4954 14.91 40.4062Z" fill="#444B6F"/>
<path d="M20.3 41.3169C20.3 42.2277 21.7 42.2277 21.7 41.3169C21.7 40.4062 20.3 40.4062 20.3 41.3169Z" fill="#444B6F"/>
<path d="M17.5701 41.0367C17.4301 41.9475 18.8301 42.1576 18.9701 41.2469C19.0401 40.3361 17.7101 40.1259 17.5701 41.0367Z" fill="#444B6F"/>
<path d="M12.32 39.4254C12.25 39.4254 12.18 40.1259 12.67 40.3361C13.23 40.6163 13.65 39.9858 13.58 39.9858C14 39.0751 12.67 38.5146 12.32 39.4254Z" fill="#444B6F"/>
<path d="M23.6599 40.4762C22.8199 40.5463 22.8199 41.8774 23.8699 41.8774C24.6399 41.7373 24.6399 40.4762 23.6599 40.4762Z" fill="#444B6F"/>
<path d="M28.77 39.005C28.42 39.1451 28.21 39.5655 28.42 39.9158C28.7 40.5463 29.4 40.2661 29.33 40.2661C30.17 39.9158 29.54 38.6547 28.77 39.005Z" fill="#444B6F"/>
<path d="M26.25 39.9158C25.9 39.9858 25.69 40.4062 25.76 40.7565C25.97 41.387 26.67 41.2469 26.6 41.2469C27.51 41.0367 27.09 39.6355 26.25 39.9158Z" fill="#444B6F"/>
<path d="M2.09994 28.3561C1.74994 28.4962 1.60994 28.9166 1.74994 29.2669C2.02994 29.8974 2.72994 29.6172 2.65994 29.6172C3.49994 29.3369 2.93994 28.0058 2.09994 28.3561Z" fill="#444B6F"/>
<path d="M1.25994 16.236C1.81994 16.4462 2.16994 15.7456 2.09994 15.7456C2.23994 15.1852 1.74994 14.9049 1.60994 14.9049C0.769942 14.6247 0.349942 16.0259 1.25994 16.236Z" fill="#444B6F"/>
<path d="M0.770163 18.9683C1.82016 18.9683 1.75016 17.7073 0.980163 17.5671C-0.069837 17.5671 0.000162989 18.8282 0.770163 18.9683Z" fill="#444B6F"/>
<path d="M2.6601 12.3128C1.8201 11.9625 1.2601 13.2235 2.1001 13.5738C2.6601 13.854 3.0801 13.2235 3.0101 13.2235C3.2201 12.7331 2.7301 12.3128 2.6601 12.3128Z" fill="#444B6F"/>
<path d="M1.60997 27.0951C2.51997 26.8849 2.09997 25.4837 1.25997 25.764C0.909972 25.9041 0.629972 26.2544 0.769972 26.6047C0.909972 27.3053 1.67997 27.0951 1.60997 27.0951Z" fill="#444B6F"/>
<path d="M1.4 21C1.4 20.0892 0 20.0892 0 21C0 21.9108 1.4 21.9108 1.4 21Z" fill="#444B6F"/>
<path d="M1.61002 23.6622C1.47002 22.8215 0.0700215 22.8916 0.210022 23.8724C0.350022 24.7832 1.68002 24.573 1.61002 23.6622Z" fill="#444B6F"/>
<path d="M41.2301 23.0317C40.1101 23.0317 40.2501 24.4329 41.1601 24.4329C42.0001 24.4329 42.0701 23.1718 41.2301 23.0317Z" fill="#444B6F"/>
<path d="M39.9001 28.3561C39.0601 28.0058 38.5001 29.2669 39.3401 29.6172C39.9001 29.8974 40.3201 29.2669 40.2501 29.2669C40.5301 28.7765 40.0401 28.3561 39.9001 28.3561Z" fill="#444B6F"/>
<path d="M40.7398 25.764C39.8298 25.5538 39.4798 26.8849 40.3898 27.0951C40.9498 27.3053 41.2998 26.6047 41.2298 26.6047C41.3698 26.1143 40.8798 25.764 40.7398 25.764Z" fill="#444B6F"/>
<path d="M39.9001 13.6439C40.4601 13.4337 40.3201 12.7331 40.2501 12.7331C39.9001 11.8924 38.5701 12.3828 38.9901 13.2936C39.2701 13.854 39.9701 13.6439 39.9001 13.6439Z" fill="#444B6F"/>
<path d="M40.46 18.3378C40.53 19.0384 41.3 18.9683 41.23 18.9683C42.07 18.8282 42.07 17.5671 41.02 17.5671C40.67 17.6372 40.39 17.9875 40.46 18.3378Z" fill="#444B6F"/>
<path d="M39.8999 15.7456C40.1099 16.4462 40.9499 16.236 40.7399 16.236C41.6499 15.9558 41.2299 14.6247 40.3899 14.9049C39.9699 14.975 39.7599 15.3953 39.8999 15.7456Z" fill="#444B6F"/>
<path d="M40.5999 21C40.5999 21.9108 41.9999 21.9108 41.9999 21C41.9999 20.0892 40.5999 20.0192 40.5999 21Z" fill="#444B6F"/>
<path d="M35.7001 5.58715C36.1201 5.58715 36.4001 5.30692 36.4001 4.88657C36.4001 3.55546 33.6001 4.18599 33.6001 6.28774V9.09007C33.6001 10.0008 35.0001 10.0008 35.0001 9.09007V7.68891H35.7001C36.6101 7.68891 36.6101 6.28774 35.7001 6.28774H35.0001C35.0001 5.86739 35.2801 5.58715 35.7001 5.58715Z" fill="#444B6F"/>
<path d="M35.7 35.0117C36.61 35.0117 36.61 33.6105 35.7 33.6105H35V32.9099C35 31.9992 33.6 31.9992 33.6 32.9099V33.6105C32.69 33.6105 32.69 35.0117 33.6 35.0117V36.4128C33.6 37.1835 34.23 37.814 35 37.814H35.7C36.61 37.814 36.61 36.4128 35.7 36.4128H35V35.0117H35.7Z" fill="#444B6F"/>
<path fill-rule="evenodd" clip-rule="evenodd" d="M6.29995 32.2093H7.69995C8.88995 32.2093 9.79995 33.1201 9.79995 34.3111V35.7123C9.79995 36.9033 8.88995 37.814 7.69995 37.814H6.29995C5.10995 37.814 4.19995 36.9033 4.19995 35.7123V34.3111C4.19995 33.1201 5.10995 32.2093 6.29995 32.2093ZM7.7001 36.4128C8.1201 36.4128 8.4001 36.1326 8.4001 35.7123V34.3111C8.4001 33.8907 8.1201 33.6105 7.7001 33.6105H6.3001C5.8801 33.6105 5.6001 33.8907 5.6001 34.3111V35.7123C5.6001 36.1326 5.8801 36.4128 6.3001 36.4128H7.7001Z" fill="#444B6F"/>
<path d="M6.30005 35.0117C6.30005 35.9224 7.70005 35.9224 7.70005 35.0117C7.70005 34.1009 6.30005 34.1009 6.30005 35.0117Z" fill="#444B6F"/>
<path d="M7.34998 4.88657H5.59998C4.68998 4.88657 4.68998 6.28774 5.59998 6.28774H7.34998C7.83998 6.28774 7.83998 6.98832 7.34998 6.98832H6.99998C6.99998 6.07756 5.59998 6.07756 5.59998 6.98832V9.09007C5.59998 10.0008 6.99998 10.0008 6.99998 9.09007V8.38949H7.34998C8.32998 8.38949 9.09998 7.61885 9.09998 6.63803C9.09998 5.65721 8.32998 4.88657 7.34998 4.88657Z" fill="#444B6F"/>
</svg>
